<?xml version="1.0" encoding="UTF-8"?>
<svg id="Full_color" xmlns="http://www.w3.org/2000/svg" viewBox="0 0 216 216">
  <defs>
    <style>
      .cls-1 {
        fill: #93c83e;
      }

      .cls-2 {
        font-size: 30px;
        letter-spacing: -.15em;
      }

      .cls-3 {
        fill: #c33332;
        stroke: #c33333;
      }

      .cls-3, .cls-4, .cls-5, .cls-6 {
        stroke-linecap: round;
        stroke-miterlimit: 10;
      }

      .cls-3, .cls-5, .cls-6 {
        stroke-width: 4px;
      }

      .cls-4 {
        stroke: #fff;
      }

      .cls-4, .cls-5, .cls-6 {
        fill: none;
      }

      .cls-5 {
        stroke: #93c83e;
      }

      .cls-7, .cls-8, .cls-9 {
        font-size: 26px;
      }

      .cls-8, .cls-10 {
        fill: #efbd1e;
        font-family: MVBoli, 'MV Boli';
      }

      .cls-9 {
        letter-spacing: -.07em;
      }

      .cls-6 {
        stroke: #efbd1e;
      }
    </style>
  </defs>
  <path class="cls-5" d="M121.44,73.26c30.03-14.15-12.65-50.74-20.59-23.72-.09.32-.55.3-.62-.02-4.9-23.9-39.62-13.11-33.68,8.32.09.34-.35.55-.55.27-15.13-20.62-50.84,21.72-22.26,30,.33.1.3.57-.04.62-30.25,4.31-12.54,46.77,11.68,30.12"/>
  <path class="cls-6" d="M54.52,92.35s13.95,5.73,33.03-6.02"/>
  <path class="cls-6" d="M69.23,94.04s1.78,41.81-7.81,55.58"/>
  <path class="cls-6" d="M69.45,94.01s-.09,43.34,8.17,57.34"/>
  <g>
    <path class="cls-3" d="M122.54,180.06c-11.03-7.04-20.68,0-20.68,0-38.21-16.37-65.79-12.19-65.79-12.19,7.09-.76,15.76-15.61,15.76-15.61,0,0,10.83-11.04,60.47,12"/>
    <path class="cls-3" d="M101.82,180.06c11.03-7.04,20.68,0,20.68,0,38.21-16.37,65.79-12.19,65.79-12.19-7.09-.76-15.76-15.61-15.76-15.61,0,0-10.83-11.04-60.47,12"/>
  </g>
  <text class="cls-8" transform="translate(75.23 118.13)"><tspan x="0" y="0">reehouse</tspan></text>
  <text class="cls-10" transform="translate(82.85 149.24)"><tspan class="cls-2" x="0" y="0">T</tspan><tspan class="cls-9" x="14.86" y="0">a</tspan><tspan class="cls-7" x="25.77" y="0">les</tspan></text>
  <path class="cls-1" d="M82.12,88.19c.54-1.49,1.7-2.49,2.88-3.49,1.3-1.1,2.66-2.24,3.46-3.78s1.15-3.26.77-4.9-1.6-2.95-3.11-3.68c-.72-.34-1.79-.25-2.33.42-1.79,2.23-3.78,4.42-4.9,7.09-.57,1.35-1.01,2.85-.92,4.33s.75,2.88,1.33,4.26c.28.65,1.09.72,1.7.56.46-.12,1.47-.68,1.2-1.33-.51-1.22-1.14-2.44-1.29-3.77s.3-2.77.83-3.98c1.06-2.39,2.84-4.35,4.46-6.37l-2.33.42c1.36.65,2.3,1.67,2.53,3.19.21,1.36-.25,2.93-1.03,4.05-1.74,2.5-4.91,3.69-6,6.7-.56,1.53,2.34,1.43,2.76.28Z"/>
  <path class="cls-1" d="M66.74,91.26c-1.76-1.8-4.41-1.72-6.48-2.83-1.03-.55-1.92-1.56-2.29-2.67-.4-1.22-.08-2.36.72-3.32l-2.5.67c1.88.95,3.88,1.78,5.46,3.21.79.71,1.58,1.58,1.93,2.6s.33,2.2.36,3.31c0,.23.41.36.56.39.33.07.76.03,1.08-.06.52-.15,1.28-.46,1.26-1.11-.04-1.13.01-2.3-.39-3.38s-1.24-2.09-2.12-2.88c-1.7-1.53-3.82-2.45-5.84-3.47-.77-.39-1.98.05-2.5.67-.91,1.09-1.36,2.5-1,3.9.34,1.31,1.3,2.46,2.4,3.21s2.32,1.04,3.54,1.38c1.11.31,2.25.65,3.1,1.52.7.72,3.45-.36,2.69-1.13Z"/>
  <path class="cls-1" d="M73.35,93.71c1.18.68,2.59.79,3.93.81,1.2.02,2.48-.11,3.62.34.99.39,1.97,1.11,2.48,2.07.55,1.06.46,2.17-.02,3.23l2.34-.94c-2.1-.42-4.26-.7-6.18-1.69-.92-.47-1.85-1.12-2.43-1.99s-.81-1.92-1.12-2.9c-.29-.92-3.17-.11-2.9.78.33,1.07.61,2.14,1.23,3.09.65,1.01,1.71,1.71,2.75,2.27,2.11,1.13,4.54,1.44,6.85,1.9.75.15,2.01-.19,2.34-.94.51-1.12.62-2.42.06-3.55s-1.54-1.94-2.65-2.49c-1.31-.65-2.8-.71-4.24-.71-1.3,0-2.57.04-3.74-.63-.56-.32-1.54,0-2.04.3-.42.24-.85.7-.28,1.03Z"/>
  <path class="cls-1" d="M59.86,94.96c-.57.42-1.04.57-1.8.74-.67.15-1.42.22-2.22.31-1.79.2-3.65.44-5.23,1.39s-2.92,2.2-3.54,3.89-.32,3.46.6,5.03c.29.48,1.13.55,1.6.4,2.94-.92,5.94-1.71,8.54-3.44,1.32-.88,2.57-2.03,3.32-3.44.7-1.3.89-2.83,1.17-4.26.14-.73-.8-1.06-1.36-1.03-.72.04-1.44.48-1.58,1.22-.24,1.22-.4,2.48-.98,3.6s-1.67,1.94-2.68,2.58c-2.12,1.34-4.56,1.9-7,2.66l1.6.4c-.71-1.2-.87-2.57-.23-3.84.28-.56.71-1.05,1.19-1.45.23-.19.48-.38.74-.54s.68-.35.8-.4c1.37-.49,2.72-.49,4.22-.7,1.72-.24,3.36-.66,4.78-1.7.52-.38.7-1.16.13-1.58-.61-.45-1.52-.26-2.08.15Z"/>
  <path class="cls-4" d="M126.44,177.85s36.3-15.03,54.47-11.59"/>
  <path class="cls-4" d="M98.27,177.85s-36.3-15.03-54.47-11.59"/>
  <path class="cls-4" d="M104.22,179.32s7.14-5.68,16.04,0"/>
</svg>